<svg width="128" height="48" viewBox="0 0 128 48" fill="none" xmlns="http://www.w3.org/2000/svg">
<g clip-path="url(#clip0_1_958)">
<circle cx="24" cy="24" r="24" fill="white"/>
<path fill-rule="evenodd" clip-rule="evenodd" d="M41.1895 20.3589C44.1006 25.1232 42.8231 35.5253 38.0923 40.8947C35.494 43.0644 32.3871 44.6462 28.9765 45.435H28.9753C29.265 45.368 29.5525 45.2952 29.8377 45.2169C21.9684 46.0582 18.8955 39.4649 21.1247 34.5452C21.7729 33.1148 22.6745 32.1919 23.6725 31.4858L23.7172 31.4543L23.8021 31.3956L23.8447 31.3666L23.9302 31.3094L23.9946 31.2671L24.0592 31.2253L24.1553 31.1642L24.2518 31.1041L24.3002 31.0744L24.3973 31.0157L24.4947 30.9579L24.5924 30.901L24.6414 30.8728L24.7396 30.8169L24.7888 30.7892L24.8873 30.7344L24.986 30.6801L25.1345 30.5997L25.2336 30.5467L25.3824 30.468L25.5335 30.389L25.7807 30.2608L26.1507 30.0696L26.3497 29.9661L26.4818 29.8967L26.6135 29.8268L26.7446 29.7563L26.8041 29.724L26.9226 29.6589L26.9817 29.6261L27.0993 29.5598L27.1471 29.5325L27.2424 29.4774L27.3371 29.4217C27.3529 29.4123 27.3686 29.4029 27.3843 29.3935L27.4783 29.3366L27.5717 29.279C27.5873 29.2693 27.6028 29.2596 27.6182 29.2498L27.7108 29.1908C29.048 28.3284 30.1858 27.1676 30.729 24.9769C33.0673 26.5317 40.2511 25.0093 41.1895 20.3589Z" fill="#FFCF60"/>
<path fill-rule="evenodd" clip-rule="evenodd" d="M46.0001 24C46.0001 30.7887 42.9253 36.8591 38.0924 40.8947C42.8232 35.5253 44.1007 25.1232 41.1897 20.3589C40.182 25.3524 31.9735 26.7393 30.2949 24.5826C29.672 23.7104 28.7433 23.0038 27.7374 22.3897L27.6138 22.315C27.5519 22.2778 27.4897 22.241 27.4273 22.2045L27.3022 22.132L27.1767 22.0602L27.0509 21.9893L26.9247 21.9191L26.7985 21.8497L26.6721 21.7809L26.5458 21.7128L26.4196 21.6454L26.2359 21.5481L26.053 21.452L25.7806 21.31L25.3344 21.0779L25.1594 20.9865L24.9331 20.8672L24.7731 20.7818L24.616 20.6969L24.5129 20.6404L24.4112 20.5841L24.311 20.5279L24.2125 20.4717L24.1155 20.4156L24.0203 20.3595C23.9889 20.3408 23.9577 20.3221 23.9269 20.3034L23.8353 20.2473C23.7749 20.2099 23.7158 20.1724 23.6581 20.1349L23.5725 20.0786C23.1784 19.8154 22.8547 19.5485 22.6349 19.2672L21.0265 17.1408C22.1498 16.2983 22.1894 15.3724 21.862 14.453L21.8371 14.3849C21.8329 14.3735 21.8286 14.3622 21.8242 14.3508L21.7974 14.2828C21.7883 14.2601 21.7789 14.2375 21.7694 14.2148L21.7403 14.1469L21.7102 14.079L21.679 14.0112L21.647 13.9434L21.6141 13.8758L21.5804 13.8082L21.5272 13.7046L21.4725 13.6012L21.4278 13.5187L21.4053 13.4776L21.3596 13.3954L21.3135 13.3135L21.2437 13.191L21.0061 12.781L20.9184 12.6284L20.8541 12.5148L20.8122 12.4395L20.7711 12.3647L20.7309 12.2902L20.6919 12.2161L20.654 12.1424L20.6174 12.0691L20.5888 12.0101L20.5611 11.9514L20.5345 11.893L20.509 11.8349L20.4845 11.7771C20.4806 11.7675 20.4766 11.7579 20.4728 11.7483L20.4502 11.6911C20.1316 10.8627 20.216 10.1403 21.4775 9.62087C22.4095 9.23713 23.4974 9.10175 24.652 9.08318L24.7274 9.08214L24.8697 9.08104L25.0125 9.08103L25.0841 9.08141L25.1559 9.08205L25.2999 9.08406L25.4443 9.08699L25.5893 9.09079L25.7346 9.09541L25.8074 9.09801L25.9534 9.10376L26.0996 9.1102L26.2462 9.11726L26.3196 9.12101L26.5401 9.13307L26.761 9.14617L26.9823 9.16015L27.3513 9.1849L28.0887 9.23678L28.3825 9.25723L28.7454 9.2814L28.9551 9.29454L29.164 9.30681L29.3719 9.31806L29.5099 9.32491L29.6474 9.33119L29.7844 9.33684L29.9208 9.34183L30.0904 9.34704L30.259 9.35105L30.3597 9.35283L30.46 9.35412L30.593 9.35505L30.7121 9.35506L30.8305 9.35427C30.8502 9.35407 30.8699 9.35383 30.8895 9.35356L31.0069 9.35149L31.1237 9.34852L31.2397 9.34463C31.2589 9.3439 31.2782 9.34313 31.2974 9.34232L31.4122 9.33696C32.6714 9.27251 33.7878 9.02347 34.62 8.38171C36.4489 6.97125 35.8492 5.72518 34.84 4.8515L34.8416 4.85243C41.5047 8.63326 46.0001 15.7917 46.0001 24Z" fill="#4272EF"/>
<path fill-rule="evenodd" clip-rule="evenodd" d="M30.9572 23.7327C30.5285 27.1379 28.9371 28.5146 27.0995 29.5598L26.9819 29.6261C26.9622 29.6371 26.9426 29.648 26.9229 29.659L26.8043 29.7241C26.7845 29.7349 26.7647 29.7456 26.7449 29.7564L26.6137 29.8269L26.4821 29.8967L26.3499 29.9662L26.151 30.0697L25.7809 30.2608L25.5337 30.389L25.3827 30.468L25.2338 30.5468L25.1347 30.5998L24.9863 30.6801L24.8875 30.7344L24.789 30.7892L24.7398 30.8169L24.6416 30.8728L24.5927 30.901L24.4949 30.958L24.3975 31.0158L24.3004 31.0744L24.252 31.1041L24.1555 31.1642L24.0594 31.2253C24.0163 31.253 23.9733 31.2811 23.9304 31.3094L23.8449 31.3667C23.8307 31.3763 23.8165 31.3859 23.8023 31.3956L23.7175 31.4543C22.7016 32.1645 21.7828 33.0935 21.1249 34.5452C18.8957 39.4649 21.9686 46.0582 29.8379 45.2169C27.9792 45.7275 26.0216 46.0001 24.0002 46.0001C13.9757 46.0001 5.51717 39.2954 2.86426 30.1257C4.47962 32.7193 9.03361 35.4239 12.2914 30.9757C14.1168 28.4833 13.6172 26.1351 12.8032 24.039L12.7509 23.9055L12.6978 23.7728C12.6889 23.7507 12.68 23.7287 12.671 23.7067L12.6441 23.6407L12.5686 23.4585L12.4926 23.2776L12.4314 23.1339L12.3702 22.9911L12.1237 22.4191L12.0396 22.2221L11.9777 22.0756L11.9172 21.9302L11.8777 21.8339L11.8389 21.7381L11.8009 21.6428L11.7637 21.548L11.7275 21.4537L11.7097 21.4068L11.6664 21.29L11.6247 21.174L11.6085 21.1278L11.577 21.0358L11.5467 20.9444L11.5178 20.8535C11.5046 20.8113 11.4918 20.7693 11.4795 20.7275L11.4556 20.6441C11.4362 20.5747 11.4181 20.5059 11.4014 20.4376L11.3821 20.3558C11.1965 19.5404 11.2266 18.7964 11.6833 18.135C12.3237 17.2075 13.0916 16.9963 13.9528 17.0795L14.0144 17.0859L14.0764 17.0933C14.0868 17.0946 14.0971 17.096 14.1075 17.0974L14.17 17.1062C14.1804 17.1077 14.1908 17.1093 14.2013 17.1109L14.2642 17.121L14.3274 17.1319L14.3591 17.1377L14.4438 17.154L14.4863 17.1626L14.5718 17.1808L14.6147 17.1903L14.7009 17.2102L14.7876 17.2312L14.8748 17.2531L14.9624 17.2759L15.0506 17.2996L15.1392 17.324L15.2731 17.3618L15.4531 17.414L15.83 17.5256L16.0231 17.5827L16.1603 17.6226L16.2984 17.662L16.3909 17.6879L16.5303 17.7259L16.6237 17.7505L16.7175 17.7746L16.8115 17.798L16.906 17.8206L16.9533 17.8316L17.0482 17.853L17.1256 17.8696L17.2031 17.8856L17.2809 17.9009L17.3589 17.9154L17.4371 17.9292L17.5154 17.9421L17.594 17.9542C17.6071 17.9561 17.6202 17.958 17.6333 17.9598L17.7122 17.9705L17.7912 17.9802C17.8044 17.9818 17.8176 17.9833 17.8308 17.9847L17.9101 17.9929C17.9233 17.9942 17.9365 17.9954 17.9498 17.9966L18.0293 18.0032C18.9718 18.0743 19.9501 17.9084 20.9396 17.2044C22.1865 16.3174 22.1997 15.3344 21.8285 14.362L21.8014 14.2926C21.7829 14.2463 21.7635 14.2 21.7434 14.1538L21.7127 14.0845L21.681 14.0153C21.6757 14.0038 21.6703 13.9923 21.6648 13.9808L21.6317 13.9117L21.5977 13.8427L21.5663 13.7803C26.5497 14.7393 31.7053 17.7895 30.9572 23.7327Z" fill="#FF5E5E"/>
<path fill-rule="evenodd" clip-rule="evenodd" d="M24 2C27.9412 2 31.6404 3.03638 34.8399 4.85147C35.8491 5.72515 36.4488 6.97122 34.6199 8.38168C33.6112 9.15957 32.1849 9.36047 30.5929 9.35502L30.4599 9.35409C30.3932 9.3534 30.3262 9.35237 30.2589 9.35102L30.1241 9.34791C30.1016 9.34733 30.079 9.34671 30.0565 9.34606L29.9207 9.3418L29.7843 9.33681L29.6473 9.33115L29.5098 9.32488L29.3718 9.31803L29.1639 9.30678L28.955 9.29451L28.7453 9.28137C28.722 9.27987 28.6986 9.27836 28.6752 9.27683L28.3824 9.2572L28.0886 9.23675L27.3512 9.18487L26.9822 9.16012L26.7609 9.14614L26.54 9.13304L26.3195 9.12098C26.295 9.11971 26.2705 9.11846 26.2461 9.11723L26.0995 9.11017L25.9533 9.10373L25.8073 9.09798C25.783 9.09709 25.7588 9.09622 25.7345 9.09538L25.5892 9.09076C25.4924 9.08795 25.3959 9.08568 25.2998 9.08403L25.1558 9.08202C25.1079 9.08151 25.0601 9.08117 25.0124 9.081L24.8696 9.08101L24.7273 9.08211C23.5447 9.09595 22.4296 9.22876 21.4774 9.62084C20.0274 10.2179 20.1325 11.0831 20.6173 12.0691L20.6539 12.1424L20.6918 12.216L20.7308 12.2901L20.771 12.3646L20.8121 12.4395L20.854 12.5148L20.9183 12.6283L21.006 12.7809L21.2436 13.191L21.3134 13.3134L21.3595 13.3954L21.4052 13.4775C21.4127 13.4913 21.4202 13.505 21.4277 13.5187L21.4724 13.6012L21.5162 13.6838C21.5235 13.6976 21.5307 13.7114 21.5378 13.7252L21.5803 13.8082C22.1598 14.9564 22.4238 16.1484 20.9395 17.2043C19.6014 18.1562 18.2841 18.1244 17.048 17.8529L16.9531 17.8316C16.9373 17.8279 16.9216 17.8243 16.9058 17.8206L16.8114 17.7979L16.7173 17.7745L16.6235 17.7505L16.5301 17.7258L16.3907 17.6878L16.2982 17.662L16.1602 17.6225L16.023 17.5826L15.8299 17.5256L15.4529 17.4139L15.2729 17.3617L15.139 17.3239L15.0504 17.2995L14.9622 17.2759L14.8746 17.253L14.7874 17.2311L14.7007 17.2101L14.6145 17.1902C14.6002 17.187 14.5858 17.1838 14.5716 17.1807L14.4861 17.1625C14.4719 17.1596 14.4578 17.1567 14.4436 17.1539L14.359 17.1376C13.3322 16.948 12.4226 17.0639 11.6831 18.1349C11.1351 18.9286 11.2013 19.8413 11.5176 20.8534L11.5466 20.9443L11.5768 21.0358L11.6083 21.1277C11.6136 21.1431 11.619 21.1585 11.6245 21.1739L11.6577 21.2666C11.6633 21.2821 11.669 21.2977 11.6747 21.3132L11.7095 21.4067C11.7154 21.4224 11.7213 21.438 11.7273 21.4537L11.7635 21.548L11.8007 21.6428L11.8387 21.7381L11.8775 21.8339L11.917 21.9302L11.9775 22.0756L12.0394 22.222L12.1235 22.4191L12.37 22.991L12.4312 23.1338L12.4924 23.2775L12.5533 23.4221C12.5634 23.4463 12.5735 23.4705 12.5836 23.4947L12.6439 23.6407C13.5437 25.8359 14.2331 28.3241 12.2912 30.9756C9.033 35.4245 4.47824 32.7185 2.8641 30.1244C2.3014 28.1804 2 26.1254 2 24C2 11.8497 11.8497 2 24 2Z" fill="#222222"/>
</g>
<path d="M78.0156 11.2656C78.0156 10.9375 77.6719 10.5938 77.3438 10.5938H64.6719C64.3438 10.5938 64 10.9375 64 11.2656V32.3281C64 32.6562 64.3438 33 64.6719 33H77.3125C77.6719 33 78.0156 32.5938 78.0156 32.2656V29.6406C78.0156 29.3125 77.6719 28.9688 77.3438 28.9688H69V23.6875H75.6875C76.0156 23.6875 76.3906 23.3594 76.3906 22.9844V20.5469C76.3906 20.2188 76.0156 19.875 75.6875 19.875H69V14.625H77.3438C77.7031 14.625 78.0156 14.2812 78.0156 13.9531V11.2656Z" fill="black"/>
<path d="M93.7969 17.2812C93.4062 17.2812 93.1406 17.4688 92.9688 17.8281L88.875 29.3125L84.7656 17.8281C84.6406 17.4688 84.3906 17.2812 84 17.2812H80.3281C79.8125 17.2812 79.5781 17.5781 79.7812 18.0625L84.9062 32.4531C85.0781 32.8125 85.3281 33 85.6719 33H87.5625L87.2344 33.9219C87.1094 34.3281 86.9688 34.6562 86.8281 34.8906C86.5156 35.3594 85.7344 35.875 84.5469 35.875H84.1719C83.8125 35.875 83.4531 36.25 83.4531 36.5781V39.0469C83.4531 39.375 83.8438 39.7188 84.1719 39.7188H84.5469C86.8125 39.7188 88.4219 39.4375 89.3906 38.8594C90.3438 38.2812 91.0938 37.2656 91.625 35.8125L98.0156 18.0625C98.2031 17.625 97.9688 17.2812 97.4844 17.2812H93.7969Z" fill="black"/>
<path d="M104.656 33C104.984 33 105.328 32.6562 105.328 32.3281V23.375C105.328 21.9531 106.016 21.0938 107.031 21.0938C107.5 21.0938 108.016 21.3125 108.594 21.7344C108.844 21.9531 109.109 21.9219 109.391 21.6406L111.672 19.375C111.922 19.1094 111.891 18.625 111.594 18.375C110.391 17.4375 109.25 16.9688 108.141 16.9688C107.438 16.9688 106.812 17.1094 106.266 17.4062C105.719 17.7031 105.312 18.0312 105.078 18.375L104.531 17.5781C104.359 17.375 104.109 17.2812 103.766 17.2812H101.203C100.844 17.2812 100.531 17.625 100.531 17.9531V32.3281C100.531 32.6562 100.875 33 101.203 33H104.656Z" fill="black"/>
<path d="M118.578 33.3125C120.812 33.3125 122.281 32.8438 122.969 31.9062L123.547 32.7188C123.672 32.9062 123.922 33 124.281 33H126.844C127.219 33 127.547 32.6562 127.547 32.3281V23.9062C127.547 21.7344 127 20.0312 125.922 18.7969C124.828 17.5781 122.953 16.9688 120.281 16.9688C117.703 16.9688 115.672 17.4688 114.203 18.4688C113.781 18.75 113.75 19.0781 114.141 19.4375L116.094 21.3594C116.344 21.6094 116.672 21.6562 117.078 21.4844C118.109 20.9688 119.172 20.7188 120.281 20.7188C121.906 20.7188 122.719 21.6406 122.719 23.4688V24.2344C121.906 23.5 120.547 23.1406 118.656 23.1406C117.016 23.1406 115.641 23.5781 114.531 24.4375C113.422 25.2969 112.859 26.5312 112.859 28.1406C112.859 29.75 113.406 31.0156 114.516 31.9375C115.625 32.8594 116.969 33.3125 118.578 33.3125ZM119.922 29.7344C118.344 29.7344 117.812 29.2812 117.812 28.2656C117.812 27.2031 118.359 26.7656 120.188 26.7656C121.25 26.7656 121.938 26.8594 122.25 27.0625C122.562 27.2656 122.719 27.6562 122.719 28.2031C122.703 29.2188 121.781 29.7344 119.922 29.7344Z" fill="black"/>
<defs>
<clipPath id="clip0_1_958">
<rect width="48" height="48" fill="white"/>
</clipPath>
</defs>
</svg>
