<svg width="48" height="48" viewBox="0 0 48 48" fill="none" xmlns="http://www.w3.org/2000/svg">
<path d="M43.4158 13.812C42.9488 12.0772 41.581 10.7094 39.8462 10.2424C36.677 9.375 23.9999 9.375 23.9999 9.375C23.9999 9.375 11.3229 9.375 8.15361 10.209C6.45221 10.6761 5.05107 12.0772 4.58402 13.812C3.75 16.9812 3.75 23.5533 3.75 23.5533C3.75 23.5533 3.75 30.1587 4.58402 33.2946C5.05107 35.0293 6.41885 36.3971 8.15361 36.8642C11.3562 37.7316 23.9999 37.7316 23.9999 37.7316C23.9999 37.7316 36.677 37.7316 39.8462 36.8975C41.581 36.4305 42.9488 35.0627 43.4158 33.3279C44.2498 30.1587 44.2498 23.5866 44.2498 23.5866C44.2498 23.5866 44.2832 16.9812 43.4158 13.812Z" fill="#FF0000"/>
<path d="M19.9629 29.3933L30.5049 23.3216L19.9629 17.25V29.3933Z" fill="white"/>
</svg>
