<svg width="48" height="48" viewBox="0 0 48 48" fill="none" xmlns="http://www.w3.org/2000/svg">
<path d="M24.0004 6.54541C19.2602 6.54541 18.6653 6.56614 16.8035 6.65087C14.9454 6.73596 13.6771 7.03014 12.5673 7.46177C11.4193 7.90759 10.4455 8.50396 9.47538 9.4745C8.5045 10.4447 7.90815 11.4185 7.46089 12.5661C7.02818 13.6763 6.73364 14.945 6.65001 16.8025C6.56674 18.6643 6.54492 19.2596 6.54492 24C6.54492 28.7403 6.56601 29.3334 6.65037 31.1952C6.73583 33.0534 7.03 34.3218 7.46126 35.4316C7.90743 36.5796 8.50377 37.5534 9.47429 38.5236C10.4441 39.4945 11.4179 40.0923 12.5651 40.5381C13.6756 40.9698 14.9443 41.264 16.8021 41.349C18.6638 41.4338 19.2584 41.4545 23.9982 41.4545C28.7388 41.4545 29.3319 41.4338 31.1936 41.349C33.0518 41.264 34.3215 40.9698 35.432 40.5381C36.5796 40.0923 37.552 39.4945 38.5218 38.5236C39.4927 37.5534 40.089 36.5796 40.5363 35.432C40.9653 34.3218 41.2599 33.053 41.3471 31.1956C41.4308 29.3338 41.4526 28.7403 41.4526 24C41.4526 19.2596 41.4308 18.6647 41.3471 16.8029C41.2599 14.9447 40.9653 13.6763 40.5363 12.5665C40.089 11.4185 39.4927 10.4447 38.5218 9.4745C37.5509 8.50359 36.58 7.90723 35.431 7.46177C34.3183 7.03014 33.0492 6.73596 31.1911 6.65087C29.3293 6.56614 28.7366 6.54541 23.9949 6.54541H24.0004ZM22.4346 9.69086C22.8993 9.69014 23.4179 9.69086 24.0004 9.69086C28.6606 9.69086 29.213 9.70759 31.0533 9.79123C32.755 9.86905 33.6786 10.1534 34.2939 10.3923C35.1084 10.7087 35.6891 11.0869 36.2997 11.6978C36.9105 12.3087 37.2887 12.8905 37.6058 13.705C37.8447 14.3196 38.1294 15.2432 38.2069 16.945C38.2905 18.785 38.3087 19.3378 38.3087 23.996C38.3087 28.6541 38.2905 29.2069 38.2069 31.0469C38.1291 32.7487 37.8447 33.6723 37.6058 34.2869C37.2894 35.1014 36.9105 35.6814 36.2997 36.292C35.6888 36.9029 35.1088 37.281 34.2939 37.5974C33.6794 37.8374 32.755 38.121 31.0533 38.1989C29.2133 38.2825 28.6606 38.3007 24.0004 38.3007C19.3398 38.3007 18.7875 38.2825 16.9475 38.1989C15.2457 38.1203 14.3221 37.836 13.7065 37.597C12.892 37.2807 12.3102 36.9025 11.6993 36.2916C11.0884 35.6807 10.7103 35.1003 10.3932 34.2854C10.1543 33.6709 9.86955 32.7472 9.7921 31.0454C9.70846 29.2054 9.69174 28.6527 9.69174 23.9916C9.69174 19.3305 9.70846 18.7807 9.7921 16.9407C9.86991 15.2389 10.1543 14.3152 10.3932 13.7C10.7095 12.8854 11.0884 12.3036 11.6993 11.6927C12.3102 11.0818 12.892 10.7036 13.7065 10.3865C14.3218 10.1465 15.2457 9.86286 16.9475 9.78468C18.5576 9.71196 19.1816 9.69014 22.4346 9.6865V9.69086ZM33.3172 12.589C32.1609 12.589 31.2227 13.5261 31.2227 14.6829C31.2227 15.8392 32.1609 16.7774 33.3172 16.7774C34.4735 16.7774 35.4117 15.8392 35.4117 14.6829C35.4117 13.5265 34.4735 12.5883 33.3172 12.5883V12.589ZM24.0004 15.0363C19.0504 15.0363 15.037 19.0498 15.037 24C15.037 28.9501 19.0504 32.9618 24.0004 32.9618C28.9504 32.9618 32.9623 28.9501 32.9623 24C32.9623 19.0498 28.9501 15.0363 24 15.0363H24.0004ZM24.0004 18.1818C27.2134 18.1818 29.8184 20.7865 29.8184 24C29.8184 27.213 27.2134 29.8181 24.0004 29.8181C20.787 29.8181 18.1824 27.213 18.1824 24C18.1824 20.7865 20.787 18.1818 24.0004 18.1818V18.1818Z" fill="url(#paint0_radial_5906_133338)"/>
<path d="M24.0004 6.54541C19.2602 6.54541 18.6653 6.56614 16.8035 6.65087C14.9454 6.73596 13.6771 7.03014 12.5673 7.46177C11.4193 7.90759 10.4455 8.50396 9.47538 9.4745C8.5045 10.4447 7.90815 11.4185 7.46089 12.5661C7.02818 13.6763 6.73364 14.945 6.65001 16.8025C6.56674 18.6643 6.54492 19.2596 6.54492 24C6.54492 28.7403 6.56601 29.3334 6.65037 31.1952C6.73583 33.0534 7.03 34.3218 7.46126 35.4316C7.90743 36.5796 8.50377 37.5534 9.47429 38.5236C10.4441 39.4945 11.4179 40.0923 12.5651 40.5381C13.6756 40.9698 14.9443 41.264 16.8021 41.349C18.6638 41.4338 19.2584 41.4545 23.9982 41.4545C28.7388 41.4545 29.3319 41.4338 31.1936 41.349C33.0518 41.264 34.3215 40.9698 35.432 40.5381C36.5796 40.0923 37.552 39.4945 38.5218 38.5236C39.4927 37.5534 40.089 36.5796 40.5363 35.432C40.9653 34.3218 41.2599 33.053 41.3471 31.1956C41.4308 29.3338 41.4526 28.7403 41.4526 24C41.4526 19.2596 41.4308 18.6647 41.3471 16.8029C41.2599 14.9447 40.9653 13.6763 40.5363 12.5665C40.089 11.4185 39.4927 10.4447 38.5218 9.4745C37.5509 8.50359 36.58 7.90723 35.431 7.46177C34.3183 7.03014 33.0492 6.73596 31.1911 6.65087C29.3293 6.56614 28.7366 6.54541 23.9949 6.54541H24.0004ZM22.4346 9.69086C22.8993 9.69014 23.4179 9.69086 24.0004 9.69086C28.6606 9.69086 29.213 9.70759 31.0533 9.79123C32.755 9.86905 33.6786 10.1534 34.2939 10.3923C35.1084 10.7087 35.6891 11.0869 36.2997 11.6978C36.9105 12.3087 37.2887 12.8905 37.6058 13.705C37.8447 14.3196 38.1294 15.2432 38.2069 16.945C38.2905 18.785 38.3087 19.3378 38.3087 23.996C38.3087 28.6541 38.2905 29.2069 38.2069 31.0469C38.1291 32.7487 37.8447 33.6723 37.6058 34.2869C37.2894 35.1014 36.9105 35.6814 36.2997 36.292C35.6888 36.9029 35.1088 37.281 34.2939 37.5974C33.6794 37.8374 32.755 38.121 31.0533 38.1989C29.2133 38.2825 28.6606 38.3007 24.0004 38.3007C19.3398 38.3007 18.7875 38.2825 16.9475 38.1989C15.2457 38.1203 14.3221 37.836 13.7065 37.597C12.892 37.2807 12.3102 36.9025 11.6993 36.2916C11.0884 35.6807 10.7103 35.1003 10.3932 34.2854C10.1543 33.6709 9.86955 32.7472 9.7921 31.0454C9.70846 29.2054 9.69174 28.6527 9.69174 23.9916C9.69174 19.3305 9.70846 18.7807 9.7921 16.9407C9.86991 15.2389 10.1543 14.3152 10.3932 13.7C10.7095 12.8854 11.0884 12.3036 11.6993 11.6927C12.3102 11.0818 12.892 10.7036 13.7065 10.3865C14.3218 10.1465 15.2457 9.86286 16.9475 9.78468C18.5576 9.71196 19.1816 9.69014 22.4346 9.6865V9.69086ZM33.3172 12.589C32.1609 12.589 31.2227 13.5261 31.2227 14.6829C31.2227 15.8392 32.1609 16.7774 33.3172 16.7774C34.4735 16.7774 35.4117 15.8392 35.4117 14.6829C35.4117 13.5265 34.4735 12.5883 33.3172 12.5883V12.589ZM24.0004 15.0363C19.0504 15.0363 15.037 19.0498 15.037 24C15.037 28.9501 19.0504 32.9618 24.0004 32.9618C28.9504 32.9618 32.9623 28.9501 32.9623 24C32.9623 19.0498 28.9501 15.0363 24 15.0363H24.0004ZM24.0004 18.1818C27.2134 18.1818 29.8184 20.7865 29.8184 24C29.8184 27.213 27.2134 29.8181 24.0004 29.8181C20.787 29.8181 18.1824 27.213 18.1824 24C18.1824 20.7865 20.787 18.1818 24.0004 18.1818V18.1818Z" fill="url(#paint1_radial_5906_133338)"/>
<defs>
<radialGradient id="paint0_radial_5906_133338" cx="0" cy="0" r="1" gradientUnits="userSpaceOnUse" gradientTransform="translate(15.8173 44.1432) rotate(-90) scale(34.5975 32.1771)">
<stop stop-color="#FFDD55"/>
<stop offset="0.1" stop-color="#FFDD55"/>
<stop offset="0.5" stop-color="#FF543E"/>
<stop offset="1" stop-color="#C837AB"/>
</radialGradient>
<radialGradient id="paint1_radial_5906_133338" cx="0" cy="0" r="1" gradientUnits="userSpaceOnUse" gradientTransform="translate(0.697703 9.0602) rotate(78.6811) scale(15.4652 63.7458)">
<stop stop-color="#3771C8"/>
<stop offset="0.128" stop-color="#3771C8"/>
<stop offset="1" stop-color="#6600FF" stop-opacity="0"/>
</radialGradient>
</defs>
</svg>
