<?xml version="1.0" encoding="utf-8"?>
<!-- Generator: Adobe Illustrator 25.0.1, SVG Export Plug-In . SVG Version: 6.00 Build 0)  -->
<svg version="1.1" id="Logo_design" xmlns="http://www.w3.org/2000/svg" xmlns:xlink="http://www.w3.org/1999/xlink" x="0px"
	 y="0px" viewBox="0 0 340.2 340.2" style="enable-background:new 0 0 340.2 340.2;" xml:space="preserve">
<style type="text/css">
	.st0{fill:#323232;}
	.st1{fill:#6E001E;}
	.st2{fill:#00BEE6;}
	.st3{fill:#FABE3C;}
	.st4{fill:#004650;}
	.st5{fill:#FF413C;}
	.st6{fill:#282864;}
	.st7{fill:#00D2C8;}
	.st8{fill:#A6A6A5;}
	.st9{fill:#6E0069;}
	.st10{fill:#FFFFFF;}
</style>
<path class="st7" d="M275.2,133.4l-20-20l-28.3,28.3v-28.3h-28.3L226.8,85l-20-20l-36.6,36.6L133.4,65l-20,20l28.3,28.3h-28.3v28.3
	L85,113.4l-20,20l36.6,36.6L65,206.7l20,20l28.3-28.3v28.3h28.3l-28.3,28.3l20,20l36.6-36.6l36.6,36.6l20-20l-28.3-28.3h28.3v-28.3
	l28.3,28.3l20-20l-36.6-36.6L275.2,133.4z M141.7,141.7h56.7v56.7h-56.7V141.7z"/>
</svg>
