<svg width="48" height="48" viewBox="0 0 48 48" fill="none" xmlns="http://www.w3.org/2000/svg">
<path d="M39.9049 16.7174C39.9293 17.0537 39.9293 17.39 39.9293 17.7295C39.9293 28.072 31.6742 40 16.5793 40V39.9938C12.1203 40 7.75381 38.7818 4 36.4848C4.64839 36.5592 5.30002 36.5964 5.95328 36.598C9.64859 36.6011 13.2383 35.4185 16.1454 33.2409C12.6338 33.1773 9.55434 30.9935 8.47857 27.8054C9.70871 28.0317 10.9762 27.9852 12.1836 27.6705C8.35507 26.9328 5.60065 23.7245 5.60065 19.9985V19.8993C6.74142 20.5053 8.01869 20.8417 9.32521 20.8789C5.71928 18.5804 4.60776 14.005 6.78529 10.4279C10.9519 15.3178 17.0993 18.2905 23.6986 18.6052C23.0372 15.8866 23.9407 13.0379 26.0727 11.1269C29.378 8.16346 34.5765 8.31535 37.6835 11.4663C39.5214 11.1207 41.283 10.4775 42.895 9.56612C42.2823 11.378 41.0002 12.917 39.2874 13.895C40.9141 13.7121 42.5034 13.2967 44 12.6628C42.8982 14.2375 41.5105 15.6092 39.9049 16.7174Z" fill="#1D9BF0"/>
</svg>
