<svg width="49" height="48" viewBox="0 0 49 48" fill="none" xmlns="http://www.w3.org/2000/svg">
<path fill-rule="evenodd" clip-rule="evenodd" d="M3.17188 36C2.06731 36 1.17188 35.1046 1.17188 34V22C1.17188 17.0294 5.20131 13 10.1719 13C12.022 13 13.7418 13.5583 15.1719 14.5155V10C15.1719 5.02944 19.2013 1 24.1719 1C29.1424 1 33.1719 5.02944 33.1719 10V14.5155C34.602 13.5583 36.3217 13 38.1719 13C43.1424 13 47.1719 17.0294 47.1719 22V34C47.1719 35.1046 46.2764 36 45.1719 36C44.0673 36 43.1719 35.1046 43.1719 34C43.1719 31.2386 40.9333 29 38.1719 29C35.4104 29 33.1719 31.2386 33.1719 34V46C33.1719 47.1046 32.2764 48 31.1719 48C30.0673 48 29.1719 47.1046 29.1719 46C29.1719 43.2386 26.9333 41 24.1719 41C21.4105 41 19.1719 43.2386 19.1719 46C19.1719 47.1046 18.2764 48 17.1719 48C16.0673 48 15.1719 47.1046 15.1719 46V34C15.1719 31.2386 12.9333 29 10.1719 29C7.41045 29 5.17188 31.2386 5.17188 34C5.17188 35.1046 4.27644 36 3.17188 36ZM5.17188 29.101C6.44239 27.8045 8.21319 27 10.1719 27C14.0379 27 17.1719 30.134 17.1719 34V46C17.1719 44.0927 17.9347 42.3636 19.1719 41.101C20.4424 39.8045 22.2132 39 24.1719 39C26.1306 39 27.9014 39.8045 29.1719 41.101C30.4091 42.3636 31.1719 44.0927 31.1719 46V34C31.1719 30.134 34.3059 27 38.1719 27C40.1306 27 41.9014 27.8045 43.1719 29.101C44.4091 30.3636 45.1719 32.0927 45.1719 34V22C45.1719 18.134 42.0379 15 38.1719 15C36.2132 15 34.4424 15.8045 33.1719 17.101C31.9347 18.3636 31.1719 20.0927 31.1719 22V10C31.1719 6.13401 28.0379 3 24.1719 3C20.3059 3 17.1719 6.13401 17.1719 10V22C17.1719 20.0927 16.4091 18.3636 15.1719 17.101C13.9014 15.8045 12.1306 15 10.1719 15C6.30588 15 3.17188 18.134 3.17188 22V34C3.17188 32.0927 3.93469 30.3636 5.17188 29.101Z" fill="white"/>
<path fill-rule="evenodd" clip-rule="evenodd" d="M24.1719 3C20.3059 3 17.1719 6.13401 17.1719 10V22C17.1719 18.134 20.3059 15 24.1719 15C28.0379 15 31.1719 18.134 31.1719 22V10C31.1719 6.13401 28.0379 3 24.1719 3Z" fill="#4272EF"/>
<path fill-rule="evenodd" clip-rule="evenodd" d="M24.1719 27C20.3059 27 17.1719 30.134 17.1719 34V46C17.1719 42.134 20.3059 39 24.1719 39C28.0379 39 31.1719 42.134 31.1719 46V34C31.1719 30.134 28.0379 27 24.1719 27Z" fill="#FF5E5E"/>
<path fill-rule="evenodd" clip-rule="evenodd" d="M38.1719 15C34.3059 15 31.1719 18.134 31.1719 22V34C31.1719 30.134 34.3059 27 38.1719 27C42.0379 27 45.1719 30.134 45.1719 34V22C45.1719 18.134 42.0379 15 38.1719 15Z" fill="#FFCF60"/>
<path fill-rule="evenodd" clip-rule="evenodd" d="M24.1719 15C20.3059 15 17.1719 18.134 17.1719 22V34C17.1719 30.134 20.3059 27 24.1719 27C28.0379 27 31.1719 30.134 31.1719 34V22C31.1719 18.134 28.0379 15 24.1719 15Z" fill="white"/>
<path fill-rule="evenodd" clip-rule="evenodd" d="M10.1719 15C6.30588 15 3.17188 18.134 3.17188 22V34C3.17188 30.134 6.30588 27 10.1719 27C14.0379 27 17.1719 30.134 17.1719 34V22C17.1719 18.134 14.0379 15 10.1719 15Z" fill="#222222"/>
</svg>
