<svg width="124" height="48" viewBox="0 0 124 48" fill="none" xmlns="http://www.w3.org/2000/svg">
<path fill-rule="evenodd" clip-rule="evenodd" d="M3.17188 36C2.06731 36 1.17188 35.1046 1.17188 34V22C1.17188 17.0294 5.20131 13 10.1719 13C12.022 13 13.7418 13.5583 15.1719 14.5155V10C15.1719 5.02944 19.2013 1 24.1719 1C29.1424 1 33.1719 5.02944 33.1719 10V14.5155C34.602 13.5583 36.3217 13 38.1719 13C43.1424 13 47.1719 17.0294 47.1719 22V34C47.1719 35.1046 46.2764 36 45.1719 36C44.0673 36 43.1719 35.1046 43.1719 34C43.1719 31.2386 40.9333 29 38.1719 29C35.4104 29 33.1719 31.2386 33.1719 34V46C33.1719 47.1046 32.2764 48 31.1719 48C30.0673 48 29.1719 47.1046 29.1719 46C29.1719 43.2386 26.9333 41 24.1719 41C21.4105 41 19.1719 43.2386 19.1719 46C19.1719 47.1046 18.2764 48 17.1719 48C16.0673 48 15.1719 47.1046 15.1719 46V34C15.1719 31.2386 12.9333 29 10.1719 29C7.41045 29 5.17188 31.2386 5.17188 34C5.17188 35.1046 4.27644 36 3.17188 36ZM5.17188 29.101C6.44239 27.8045 8.21319 27 10.1719 27C14.0379 27 17.1719 30.134 17.1719 34V46C17.1719 44.0927 17.9347 42.3636 19.1719 41.101C20.4424 39.8045 22.2132 39 24.1719 39C26.1306 39 27.9014 39.8045 29.1719 41.101C30.4091 42.3636 31.1719 44.0927 31.1719 46V34C31.1719 30.134 34.3059 27 38.1719 27C40.1306 27 41.9014 27.8045 43.1719 29.101C44.4091 30.3636 45.1719 32.0927 45.1719 34V22C45.1719 18.134 42.0379 15 38.1719 15C36.2132 15 34.4424 15.8045 33.1719 17.101C31.9347 18.3636 31.1719 20.0927 31.1719 22V10C31.1719 6.13401 28.0379 3 24.1719 3C20.3059 3 17.1719 6.13401 17.1719 10V22C17.1719 20.0927 16.4091 18.3636 15.1719 17.101C13.9014 15.8045 12.1306 15 10.1719 15C6.30588 15 3.17188 18.134 3.17188 22V34C3.17188 32.0927 3.93469 30.3636 5.17188 29.101Z" fill="white"/>
<path fill-rule="evenodd" clip-rule="evenodd" d="M24.1719 3C20.3059 3 17.1719 6.13401 17.1719 10V22C17.1719 18.134 20.3059 15 24.1719 15C28.0379 15 31.1719 18.134 31.1719 22V10C31.1719 6.13401 28.0379 3 24.1719 3Z" fill="#4272EF"/>
<path fill-rule="evenodd" clip-rule="evenodd" d="M24.1719 27C20.3059 27 17.1719 30.134 17.1719 34V46C17.1719 42.134 20.3059 39 24.1719 39C28.0379 39 31.1719 42.134 31.1719 46V34C31.1719 30.134 28.0379 27 24.1719 27Z" fill="#FF5E5E"/>
<path fill-rule="evenodd" clip-rule="evenodd" d="M38.1719 15C34.3059 15 31.1719 18.134 31.1719 22V34C31.1719 30.134 34.3059 27 38.1719 27C42.0379 27 45.1719 30.134 45.1719 34V22C45.1719 18.134 42.0379 15 38.1719 15Z" fill="#FFCF60"/>
<path fill-rule="evenodd" clip-rule="evenodd" d="M24.1719 15C20.3059 15 17.1719 18.134 17.1719 22V34C17.1719 30.134 20.3059 27 24.1719 27C28.0379 27 31.1719 30.134 31.1719 34V22C31.1719 18.134 28.0379 15 24.1719 15Z" fill="white"/>
<path fill-rule="evenodd" clip-rule="evenodd" d="M10.1719 15C6.30588 15 3.17188 18.134 3.17188 22V34C3.17188 30.134 6.30588 27 10.1719 27C14.0379 27 17.1719 30.134 17.1719 34V22C17.1719 18.134 14.0379 15 10.1719 15Z" fill="#222222"/>
<path d="M76.4531 18.5156C76.4531 16.2812 75.6875 14.5625 74.1719 13.375C72.6406 12.1875 70.5781 11.5938 68 11.5938H60.6719C60.2188 11.5938 60 11.8125 60 12.2656V33.3281C60 33.7812 60.2188 34 60.6719 34H64.3281C64.7812 34 65 33.7812 65 33.3281V25.5781H68C70.5469 25.5781 72.5938 24.9531 74.1406 23.7031C75.6875 22.4688 76.4531 20.7344 76.4531 18.5156ZM65 21.5469V15.625H67.9375C70.0938 15.6406 71.1719 16.625 71.1719 18.6094C71.1719 20.7344 70.0469 21.5469 68 21.5469H65Z" fill="black"/>
<path d="M86.4375 34.3125C89.0469 34.3125 91.0625 33.5938 92.5 32.1406C93.9375 30.6875 94.6562 28.7031 94.6562 26.1562C94.6562 23.625 93.9375 21.625 92.5 20.1562C91.0625 18.7031 89.0469 17.9688 86.4375 17.9688C83.8125 17.9688 81.7656 18.7031 80.3125 20.1562C78.8438 21.625 78.1094 23.625 78.1094 26.1562C78.1094 28.7031 78.8438 30.6875 80.3125 32.1406C81.7656 33.5938 83.8125 34.3125 86.4375 34.3125ZM86.4375 21.7812C88.6094 21.7812 89.6875 23.4688 89.6875 26.1562C89.6875 28.8438 88.5625 30.5156 86.4375 30.5156C84.2031 30.5156 83.0781 29.0625 83.0781 26.1562C83.0781 24.8281 83.375 23.7656 83.9688 22.9688C84.5469 22.1719 85.375 21.7812 86.4375 21.7812Z" fill="black"/>
<path d="M102.094 34C102.422 34 102.766 33.6562 102.766 33.3281V24.375C102.766 22.9531 103.453 22.0938 104.469 22.0938C104.938 22.0938 105.453 22.3125 106.031 22.7344C106.281 22.9531 106.547 22.9219 106.828 22.6406L109.109 20.375C109.359 20.1094 109.328 19.625 109.031 19.375C107.828 18.4375 106.688 17.9688 105.578 17.9688C104.875 17.9688 104.25 18.1094 103.703 18.4062C103.156 18.7031 102.75 19.0312 102.516 19.375L101.969 18.5781C101.797 18.375 101.547 18.2812 101.203 18.2812H98.6406C98.2812 18.2812 97.9688 18.625 97.9688 18.9531V33.3281C97.9688 33.6562 98.3125 34 98.6406 34H102.094Z" fill="black"/>
<path d="M120.844 22.3125C121.297 22.3125 121.516 22.0938 121.516 21.6406V18.9531C121.516 18.5 121.297 18.2812 120.844 18.2812H118.219V14.1875C118.219 13.8594 117.875 13.5156 117.547 13.5156H114.078C113.75 13.5156 113.406 13.8594 113.406 14.1875V18.2812H111.328C110.953 18.2812 110.656 18.5781 110.656 18.9531V21.6406C110.656 22.0312 110.953 22.3125 111.328 22.3125H113.406V28.2969C113.406 30.1875 114.031 31.6094 115.266 32.5625C116.5 33.5156 118.094 34 120.031 34H120.844C121.219 34 121.516 33.7031 121.516 33.3281V30.8594C121.516 30.4062 121.297 30.1875 120.844 30.1875H120.094C119.031 30.1875 118.219 29.5625 118.219 28.2969V22.3125H120.844Z" fill="black"/>
</svg>
